<svg xmlns="http://www.w3.org/2000/svg" viewBox="0 0 1200 720" role="img" aria-labelledby="title desc">
  <title id="title">From finite observer to persistent observer</title>
  <desc id="desc">A finite observer extracts a candidate learnability signal. A persistent observer preserves receipts, residue, contradiction, governance, and changed future accessibility.</desc>
  <rect width="1200" height="720" fill="#071019"/>
  <style>
    text{font-family:Arial,Helvetica,sans-serif;fill:#f3f7f2}
    .muted{fill:#aeb9c3}.box{fill:#101b25;stroke:#8fd7ff;stroke-width:2}.gate{fill:#1d1a12;stroke:#f0b46a;stroke-width:2}.solid{stroke:#7cff6b;stroke-width:4;fill:none}.dash{stroke:#f0b46a;stroke-width:4;fill:none;stroke-dasharray:12 10}
  </style>
  <text x="70" y="80" font-size="34" font-weight="700">Finite observer</text>
  <text x="700" y="80" font-size="34" font-weight="700">Persistent observer</text>
  <rect class="box" x="70" y="140" width="380" height="120" rx="8"/>
  <text x="105" y="190" font-size="24" font-weight="700">bounded capacity</text>
  <text class="muted" x="105" y="225" font-size="18">extracts reusable structure</text>
  <rect class="box" x="70" y="330" width="380" height="120" rx="8"/>
  <text x="105" y="380" font-size="24" font-weight="700">candidate signal</text>
  <text class="muted" x="105" y="415" font-size="18">learnability / epiplexity estimate</text>
  <path class="dash" d="M450 390 C560 390 575 390 680 390"/>
  <text class="muted" x="485" y="360" font-size="18">candidate input only</text>
  <rect class="box" x="700" y="130" width="420" height="78" rx="8"/>
  <text x="730" y="178" font-size="22" font-weight="700">immutable evidence receipt</text>
  <rect class="box" x="700" y="232" width="420" height="78" rx="8"/>
  <text x="730" y="280" font-size="22" font-weight="700">target, residue, uncertainty</text>
  <rect class="box" x="700" y="334" width="420" height="78" rx="8"/>
  <text x="730" y="382" font-size="22" font-weight="700">contradiction and correction history</text>
  <rect class="box" x="700" y="436" width="420" height="78" rx="8"/>
  <text x="730" y="484" font-size="22" font-weight="700">changed future accessibility</text>
  <rect class="gate" x="700" y="538" width="420" height="78" rx="8"/>
  <text x="730" y="586" font-size="22" font-weight="700">HOLD / guard / host boundary</text>
  <path class="solid" d="M910 208 V232"/>
  <path class="solid" d="M910 310 V334"/>
  <path class="solid" d="M910 412 V436"/>
  <path class="solid" d="M910 514 V538"/>
</svg>